<?xml version="1.0" encoding="utf-8"?>
<svg xmlns="http://www.w3.org/2000/svg" xmlns:xlink="http://www.w3.org/1999/xlink" width="1000" height="500" viewBox="0 0 4000 2000">
<defs>
  <clipPath id="clip650">
    <rect x="0" y="0" width="4000" height="2000"/>
  </clipPath>
</defs>
<path clip-path="url(#clip650)" d="M0 2000 L4000 2000 L4000 0 L0 0  Z" fill="#ffffff" fill-rule="evenodd" fill-opacity="1"/>
<defs>
  <clipPath id="clip651">
    <rect x="800" y="0" width="2801" height="2000"/>
  </clipPath>
</defs>
<path clip-path="url(#clip650)" d="M332.678 1852.21 L3952.76 1852.21 L3952.76 47.2441 L332.678 47.2441  Z" fill="#ffffff" fill-rule="evenodd" fill-opacity="1"/>
<defs>
  <clipPath id="clip652">
    <rect x="332" y="47" width="3621" height="1806"/>
  </clipPath>
</defs>
<polyline clip-path="url(#clip652)" style="stroke:#000000; stroke-linecap:round; stroke-linejoin:round; stroke-width:2; stroke-opacity:0.1; fill:none" points="435.133,1852.21 435.133,47.2441 "/>
<polyline clip-path="url(#clip652)" style="stroke:#000000; stroke-linecap:round; stroke-linejoin:round; stroke-width:2; stroke-opacity:0.1; fill:none" points="1288.93,1852.21 1288.93,47.2441 "/>
<polyline clip-path="url(#clip652)" style="stroke:#000000; stroke-linecap:round; stroke-linejoin:round; stroke-width:2; stroke-opacity:0.1; fill:none" points="2996.51,1852.21 2996.51,47.2441 "/>
<polyline clip-path="url(#clip652)" style="stroke:#000000; stroke-linecap:round; stroke-linejoin:round; stroke-width:2; stroke-opacity:0.1; fill:none" points="3850.3,1852.21 3850.3,47.2441 "/>
<polyline clip-path="url(#clip650)" style="stroke:#000000; stroke-linecap:round; stroke-linejoin:round; stroke-width:4; stroke-opacity:1; fill:none" points="332.678,388.338 3952.76,388.338 "/>
<polyline clip-path="url(#clip650)" style="stroke:#000000; stroke-linecap:round; stroke-linejoin:round; stroke-width:4; stroke-opacity:1; fill:none" points="435.133,407.235 435.133,369.44 "/>
<polyline clip-path="url(#clip650)" style="stroke:#000000; stroke-linecap:round; stroke-linejoin:round; stroke-width:4; stroke-opacity:1; fill:none" points="1288.93,407.235 1288.93,369.44 "/>
<polyline clip-path="url(#clip650)" style="stroke:#000000; stroke-linecap:round; stroke-linejoin:round; stroke-width:4; stroke-opacity:1; fill:none" points="2996.51,407.235 2996.51,369.44 "/>
<polyline clip-path="url(#clip650)" style="stroke:#000000; stroke-linecap:round; stroke-linejoin:round; stroke-width:4; stroke-opacity:1; fill:none" points="3850.3,407.235 3850.3,369.44 "/>
<path clip-path="url(#clip650)" d="M359.989 486.266 L434.179 486.266 L434.179 496.104 L359.989 496.104 L359.989 486.266 Z" fill="#000000" fill-rule="nonzero" fill-opacity="1" /><path clip-path="url(#clip650)" d="M469.479 518.5 L510.278 518.5 L510.278 528.338 L455.417 528.338 L455.417 518.5 Q462.072 511.613 473.53 500.039 Q485.046 488.407 487.998 485.051 Q493.611 478.743 495.81 474.403 Q498.067 470.005 498.067 465.78 Q498.067 458.894 493.206 454.553 Q488.403 450.213 480.648 450.213 Q475.151 450.213 469.016 452.123 Q462.94 454.033 455.996 457.91 L455.996 446.104 Q463.056 443.269 469.19 441.822 Q475.324 440.375 480.417 440.375 Q493.843 440.375 501.829 447.088 Q509.815 453.801 509.815 465.028 Q509.815 470.352 507.789 475.155 Q505.822 479.9 500.556 486.382 Q499.109 488.06 491.354 496.104 Q483.6 504.09 469.479 518.5 Z" fill="#000000" fill-rule="nonzero" fill-opacity="1" /><path clip-path="url(#clip650)" d="M1213.32 486.266 L1287.51 486.266 L1287.51 496.104 L1213.32 496.104 L1213.32 486.266 Z" fill="#000000" fill-rule="nonzero" fill-opacity="1" /><path clip-path="url(#clip650)" d="M1314.76 518.5 L1333.86 518.5 L1333.86 452.586 L1313.09 456.752 L1313.09 446.104 L1333.75 441.938 L1345.44 441.938 L1345.44 518.5 L1364.53 518.5 L1364.53 528.338 L1314.76 528.338 L1314.76 518.5 Z" fill="#000000" fill-rule="nonzero" fill-opacity="1" /><path clip-path="url(#clip650)" d="M2972.46 518.5 L2991.56 518.5 L2991.56 452.586 L2970.79 456.752 L2970.79 446.104 L2991.45 441.938 L3003.14 441.938 L3003.14 518.5 L3022.23 518.5 L3022.23 528.338 L2972.46 528.338 L2972.46 518.5 Z" fill="#000000" fill-rule="nonzero" fill-opacity="1" /><path clip-path="url(#clip650)" d="M3836.93 518.5 L3877.73 518.5 L3877.73 528.338 L3822.87 528.338 L3822.87 518.5 Q3829.53 511.613 3840.98 500.039 Q3852.5 488.407 3855.45 485.051 Q3861.06 478.743 3863.26 474.403 Q3865.52 470.005 3865.52 465.78 Q3865.52 458.894 3860.66 454.553 Q3855.86 450.213 3848.1 450.213 Q3842.6 450.213 3836.47 452.123 Q3830.39 454.033 3823.45 457.91 L3823.45 446.104 Q3830.51 443.269 3836.64 441.822 Q3842.78 440.375 3847.87 440.375 Q3861.3 440.375 3869.28 447.088 Q3877.27 453.801 3877.27 465.028 Q3877.27 470.352 3875.24 475.155 Q3873.28 479.9 3868.01 486.382 Q3866.56 488.06 3858.81 496.104 Q3851.05 504.09 3836.93 518.5 Z" fill="#000000" fill-rule="nonzero" fill-opacity="1" /><polyline clip-path="url(#clip652)" style="stroke:#000000; stroke-linecap:round; stroke-linejoin:round; stroke-width:2; stroke-opacity:0.1; fill:none" points="332.678,1801.12 3952.76,1801.12 "/>
<polyline clip-path="url(#clip652)" style="stroke:#000000; stroke-linecap:round; stroke-linejoin:round; stroke-width:2; stroke-opacity:0.1; fill:none" points="332.678,1330.2 3952.76,1330.2 "/>
<polyline clip-path="url(#clip652)" style="stroke:#000000; stroke-linecap:round; stroke-linejoin:round; stroke-width:2; stroke-opacity:0.1; fill:none" points="332.678,859.266 3952.76,859.266 "/>
<polyline clip-path="url(#clip650)" style="stroke:#000000; stroke-linecap:round; stroke-linejoin:round; stroke-width:4; stroke-opacity:1; fill:none" points="2142.72,1852.21 2142.72,47.2441 "/>
<polyline clip-path="url(#clip650)" style="stroke:#000000; stroke-linecap:round; stroke-linejoin:round; stroke-width:4; stroke-opacity:1; fill:none" points="2123.82,1801.12 2161.61,1801.12 "/>
<polyline clip-path="url(#clip650)" style="stroke:#000000; stroke-linecap:round; stroke-linejoin:round; stroke-width:4; stroke-opacity:1; fill:none" points="2123.82,1330.2 2161.61,1330.2 "/>
<polyline clip-path="url(#clip650)" style="stroke:#000000; stroke-linecap:round; stroke-linejoin:round; stroke-width:4; stroke-opacity:1; fill:none" points="2123.82,859.266 2161.61,859.266 "/>
<path clip-path="url(#clip650)" d="M1855.52 1802.25 L1929.71 1802.25 L1929.71 1812.09 L1855.52 1812.09 L1855.52 1802.25 Z" fill="#000000" fill-rule="nonzero" fill-opacity="1" /><path clip-path="url(#clip650)" d="M1956.97 1834.49 L1976.06 1834.49 L1976.06 1768.57 L1955.29 1772.74 L1955.29 1762.09 L1975.95 1757.92 L1987.64 1757.92 L1987.64 1834.49 L2006.73 1834.49 L2006.73 1844.32 L1956.97 1844.32 L1956.97 1834.49 Z" fill="#000000" fill-rule="nonzero" fill-opacity="1" /><path clip-path="url(#clip650)" d="M2030.46 1757.92 L2076.35 1757.92 L2076.35 1767.76 L2041.17 1767.76 L2041.17 1788.94 Q2043.71 1788.07 2046.26 1787.67 Q2048.81 1787.21 2051.35 1787.21 Q2065.82 1787.21 2074.27 1795.13 Q2082.72 1803.06 2082.72 1816.6 Q2082.72 1830.55 2074.04 1838.31 Q2065.36 1846 2049.56 1846 Q2044.12 1846 2038.45 1845.08 Q2032.83 1844.15 2026.81 1842.3 L2026.81 1830.55 Q2032.02 1833.39 2037.58 1834.78 Q2043.13 1836.16 2049.33 1836.16 Q2059.34 1836.16 2065.18 1830.9 Q2071.03 1825.63 2071.03 1816.6 Q2071.03 1807.58 2065.18 1802.31 Q2059.34 1797.04 2049.33 1797.04 Q2044.64 1797.04 2039.95 1798.09 Q2035.32 1799.13 2030.46 1801.33 L2030.46 1757.92 Z" fill="#000000" fill-rule="nonzero" fill-opacity="1" /><path clip-path="url(#clip650)" d="M1853.03 1331.32 L1927.22 1331.32 L1927.22 1341.16 L1853.03 1341.16 L1853.03 1331.32 Z" fill="#000000" fill-rule="nonzero" fill-opacity="1" /><path clip-path="url(#clip650)" d="M1954.48 1363.56 L1973.57 1363.56 L1973.57 1297.64 L1952.8 1301.81 L1952.8 1291.16 L1973.46 1287 L1985.15 1287 L1985.15 1363.56 L2004.25 1363.56 L2004.25 1373.4 L1954.48 1373.4 L1954.48 1363.56 Z" fill="#000000" fill-rule="nonzero" fill-opacity="1" /><path clip-path="url(#clip650)" d="M2052.86 1294.69 Q2043.83 1294.69 2039.26 1303.6 Q2034.74 1312.46 2034.74 1330.28 Q2034.74 1348.05 2039.26 1356.96 Q2043.83 1365.81 2052.86 1365.81 Q2061.94 1365.81 2066.46 1356.96 Q2071.03 1348.05 2071.03 1330.28 Q2071.03 1312.46 2066.46 1303.6 Q2061.94 1294.69 2052.86 1294.69 M2052.86 1285.43 Q2067.38 1285.43 2075.02 1296.95 Q2082.72 1308.41 2082.72 1330.28 Q2082.72 1352.1 2075.02 1363.62 Q2067.38 1375.07 2052.86 1375.07 Q2038.33 1375.07 2030.63 1363.62 Q2023 1352.1 2023 1330.28 Q2023 1308.41 2030.63 1296.95 Q2038.33 1285.43 2052.86 1285.43 Z" fill="#000000" fill-rule="nonzero" fill-opacity="1" /><path clip-path="url(#clip650)" d="M1930.92 860.395 L2005.11 860.395 L2005.11 870.233 L1930.92 870.233 L1930.92 860.395 Z" fill="#000000" fill-rule="nonzero" fill-opacity="1" /><path clip-path="url(#clip650)" d="M2030.46 816.066 L2076.35 816.066 L2076.35 825.904 L2041.17 825.904 L2041.17 847.085 Q2043.71 846.217 2046.26 845.812 Q2048.81 845.349 2051.35 845.349 Q2065.82 845.349 2074.27 853.277 Q2082.72 861.205 2082.72 874.747 Q2082.72 888.693 2074.04 896.448 Q2065.36 904.145 2049.56 904.145 Q2044.12 904.145 2038.45 903.219 Q2032.83 902.293 2026.81 900.441 L2026.81 888.693 Q2032.02 891.529 2037.58 892.918 Q2043.13 894.307 2049.33 894.307 Q2059.34 894.307 2065.18 889.041 Q2071.03 883.774 2071.03 874.747 Q2071.03 865.719 2065.18 860.453 Q2059.34 855.187 2049.33 855.187 Q2044.64 855.187 2039.95 856.228 Q2035.32 857.27 2030.46 859.469 L2030.46 816.066 Z" fill="#000000" fill-rule="nonzero" fill-opacity="1" /><polyline clip-path="url(#clip652)" style="stroke:#009af9; stroke-linecap:round; stroke-linejoin:round; stroke-width:4; stroke-opacity:1; fill:none" points="435.133,1801.12 443.671,1779.55 452.209,1758.14 460.747,1736.9 469.285,1715.82 477.823,1694.92 486.361,1674.18 494.899,1653.61 503.437,1633.2 511.975,1612.96 520.513,1592.88 529.051,1572.97 537.588,1553.22 546.126,1533.63 554.664,1514.2 563.202,1494.94 571.74,1475.84 580.278,1456.89 588.816,1438.11 597.354,1419.49 605.892,1401.02 614.43,1382.72 622.968,1364.57 631.506,1346.58 640.043,1328.74 648.581,1311.06 657.119,1293.54 665.657,1276.17 674.195,1258.96 682.733,1241.9 691.271,1224.99 699.809,1208.23 708.347,1191.63 716.885,1175.18 725.423,1158.88 733.961,1142.73 742.498,1126.73 751.036,1110.88 759.574,1095.18 768.112,1079.62 776.65,1064.21 785.188,1048.95 793.726,1033.84 802.264,1018.87 810.802,1004.05 819.34,989.372 827.878,974.838 836.416,960.448 844.954,946.201 853.491,932.096 862.029,918.133 870.567,904.311 879.105,890.63 887.643,877.089 896.181,863.687 904.719,850.425 913.257,837.301 921.795,824.315 930.333,811.466 938.871,798.754 947.409,786.178 955.946,773.738 964.484,761.433 973.022,749.262 981.56,737.226 990.098,725.323 998.636,713.552 1007.17,701.914 1015.71,690.407 1024.25,679.032 1032.79,667.787 1041.33,656.672 1049.86,645.686 1058.4,634.83 1066.94,624.101 1075.48,613.501 1084.02,603.027 1092.55,592.68 1101.09,582.459 1109.63,572.364 1118.17,562.393 1126.7,552.547 1135.24,542.824 1143.78,533.225 1152.32,523.748 1160.86,514.394 1169.39,505.16 1177.93,496.048 1186.47,487.056 1195.01,478.184 1203.55,469.432 1212.08,460.798 1220.62,452.282 1229.16,443.883 1237.7,435.602 1246.24,427.437 1254.77,419.387 1263.31,411.453 1271.85,403.634 1280.39,395.929 1288.93,388.338 1297.46,380.859 1306,373.493 1314.54,366.239 1323.08,359.096 1331.61,352.064 1340.15,345.143 1348.69,338.33 1357.23,331.627 1365.77,325.033 1374.3,318.546 1382.84,312.167 1391.38,305.894 1399.92,299.728 1408.46,293.667 1416.99,287.712 1425.53,281.861 1434.07,276.114 1442.61,270.471 1451.15,264.93 1459.68,259.492 1468.22,254.155 1476.76,248.919 1485.3,243.784 1493.84,238.75 1502.37,233.814 1510.91,228.978 1519.45,224.239 1527.99,219.599 1536.52,215.056 1545.06,210.609 1553.6,206.259 1562.14,202.004 1570.68,197.844 1579.21,193.778 1587.75,189.806 1596.29,185.927 1604.83,182.141 1613.37,178.447 1621.9,174.845 1630.44,171.334 1638.98,167.913 1647.52,164.582 1656.06,161.34 1664.59,158.187 1673.13,155.122 1681.67,152.145 1690.21,149.254 1698.75,146.451 1707.28,143.733 1715.82,141.1 1724.36,138.552 1732.9,136.089 1741.43,133.709 1749.97,131.412 1758.51,129.197 1767.05,127.065 1775.59,125.014 1784.12,123.044 1792.66,121.154 1801.2,119.343 1809.74,117.612 1818.28,115.959 1826.81,114.385 1835.35,112.887 1843.89,111.467 1852.43,110.123 1860.97,108.854 1869.5,107.661 1878.04,106.542 1886.58,105.498 1895.12,104.527 1903.66,103.628 1912.19,102.803 1920.73,102.048 1929.27,101.365 1937.81,100.753 1946.35,100.211 1954.88,99.7382 1963.42,99.3344 1971.96,98.999 1980.5,98.7315 1989.03,98.5311 1997.57,98.3975 2006.11,98.33 2014.65,98.328 2023.19,98.391 2031.72,98.5184 2040.26,98.7097 2048.8,98.9643 2057.34,99.2816 2065.88,99.6611 2074.41,100.102 2082.95,100.604 2091.49,101.167 2100.03,101.789 2108.57,102.471 2117.1,103.212 2125.64,104.01 2134.18,104.867 2142.72,105.78 2151.26,106.75 2159.79,107.776 2168.33,108.858 2176.87,109.994 2185.41,111.184 2193.94,112.428 2202.48,113.726 2211.02,115.075 2219.56,116.477 2228.1,117.93 2236.63,119.434 2245.17,120.989 2253.71,122.593 2262.25,124.246 2270.79,125.948 2279.32,127.698 2287.86,129.495 2296.4,131.339 2304.94,133.23 2313.48,135.166 2322.01,137.148 2330.55,139.174 2339.09,141.244 2347.63,143.358 2356.17,145.515 2364.7,147.714 2373.24,149.955 2381.78,152.237 2390.32,154.56 2398.85,156.923 2407.39,159.326 2415.93,161.767 2424.47,164.247 2433.01,166.765 2441.54,169.32 2450.08,171.912 2458.62,174.54 2467.16,177.204 2475.7,179.903 2484.23,182.636 2492.77,185.403 2501.31,188.204 2509.85,191.037 2518.39,193.902 2526.92,196.799 2535.46,199.727 2544,202.686 2552.54,205.675 2561.08,208.693 2569.61,211.739 2578.15,214.814 2586.69,217.917 2595.23,221.047 2603.76,224.204 2612.3,227.386 2620.84,230.594 2629.38,233.827 2637.92,237.084 2646.45,240.364 2654.99,243.668 2663.53,246.995 2672.07,250.343 2680.61,253.714 2689.14,257.105 2697.68,260.516 2706.22,263.947 2714.76,267.397 2723.3,270.866 2731.83,274.353 2740.37,277.858 2748.91,281.379 2757.45,284.917 2765.99,288.471 2774.52,292.04 2783.06,295.624 2791.6,299.221 2800.14,302.833 2808.67,306.457 2817.21,310.094 2825.75,313.743 2834.29,317.403 2842.83,321.073 2851.36,324.754 2859.9,328.445 2868.44,332.144 2876.98,335.852 2885.52,339.568 2894.05,343.291 2902.59,347.021 2911.13,350.758 2919.67,354.499 2928.21,358.246 2936.74,361.998 2945.28,365.753 2953.82,369.512 2962.36,373.274 2970.9,377.038 2979.43,380.804 2987.97,384.57 2996.51,388.338 3005.05,392.105 3013.58,395.872 3022.12,399.637 3030.66,403.401 3039.2,407.163 3047.74,410.922 3056.27,414.677 3064.81,418.429 3073.35,422.176 3081.89,425.918 3090.43,429.654 3098.96,433.384 3107.5,437.107 3116.04,440.823 3124.58,444.531 3133.12,448.231 3141.65,451.921 3150.19,455.602 3158.73,459.273 3167.27,462.933 3175.81,466.581 3184.34,470.218 3192.88,473.843 3201.42,477.454 3209.96,481.052 3218.49,484.635 3227.03,488.204 3235.57,491.758 3244.11,495.296 3252.65,498.818 3261.18,502.322 3269.72,505.809 3278.26,509.278 3286.8,512.728 3295.34,516.16 3303.87,519.571 3312.41,522.962 3320.95,526.332 3329.49,529.68 3338.03,533.007 3346.56,536.311 3355.1,539.592 3363.64,542.849 3372.18,546.081 3380.72,549.289 3389.25,552.472 3397.79,555.628 3406.33,558.758 3414.87,561.861 3423.4,564.936 3431.94,567.983 3440.48,571.001 3449.02,573.989 3457.56,576.948 3466.09,579.876 3474.63,582.773 3483.17,585.639 3491.71,588.472 3500.25,591.272 3508.78,594.039 3517.32,596.773 3525.86,599.471 3534.4,602.135 3542.94,604.763 3551.47,607.355 3560.01,609.91 3568.55,612.428 3577.09,614.908 3585.63,617.349 3594.16,619.752 3602.7,622.115 3611.24,624.438 3619.78,626.72 3628.31,628.961 3636.85,631.16 3645.39,633.317 3653.93,635.431 3662.47,637.501 3671,639.527 3679.54,641.509 3688.08,643.445 3696.62,645.336 3705.16,647.18 3713.69,648.978 3722.23,650.727 3730.77,652.429 3739.31,654.083 3747.85,655.687 3756.38,657.241 3764.92,658.745 3773.46,660.198 3782,661.6 3790.54,662.95 3799.07,664.247 3807.61,665.491 3816.15,666.681 3824.69,667.818 3833.23,668.899 3841.76,669.925 3850.3,670.895 "/>
</svg>
