<?xml version="1.0" encoding="utf-8"?>
<svg xmlns="http://www.w3.org/2000/svg" xmlns:xlink="http://www.w3.org/1999/xlink" width="1000" height="500" viewBox="0 0 4000 2000">
<defs>
  <clipPath id="clip630">
    <rect x="0" y="0" width="4000" height="2000"/>
  </clipPath>
</defs>
<path clip-path="url(#clip630)" d="M0 2000 L4000 2000 L4000 0 L0 0  Z" fill="#ffffff" fill-rule="evenodd" fill-opacity="1"/>
<defs>
  <clipPath id="clip631">
    <rect x="800" y="0" width="2801" height="2000"/>
  </clipPath>
</defs>
<path clip-path="url(#clip630)" d="M102.992 1858.69 L3952.76 1858.69 L3952.76 108.352 L102.992 108.352  Z" fill="#ffffff" fill-rule="evenodd" fill-opacity="1"/>
<defs>
  <clipPath id="clip632">
    <rect x="102" y="108" width="3851" height="1751"/>
  </clipPath>
</defs>
<polyline clip-path="url(#clip632)" style="stroke:#000000; stroke-linecap:round; stroke-linejoin:round; stroke-width:2; stroke-opacity:0.1; fill:none" points="933.333,1858.69 933.333,108.352 "/>
<polyline clip-path="url(#clip632)" style="stroke:#000000; stroke-linecap:round; stroke-linejoin:round; stroke-width:2; stroke-opacity:0.1; fill:none" points="1688.19,1858.69 1688.19,108.352 "/>
<polyline clip-path="url(#clip632)" style="stroke:#000000; stroke-linecap:round; stroke-linejoin:round; stroke-width:2; stroke-opacity:0.1; fill:none" points="2443.04,1858.69 2443.04,108.352 "/>
<polyline clip-path="url(#clip632)" style="stroke:#000000; stroke-linecap:round; stroke-linejoin:round; stroke-width:2; stroke-opacity:0.1; fill:none" points="3197.9,1858.69 3197.9,108.352 "/>
<polyline clip-path="url(#clip630)" style="stroke:#000000; stroke-linecap:round; stroke-linejoin:round; stroke-width:4; stroke-opacity:0; fill:none" points="933.333,1858.69 933.333,1839.79 "/>
<polyline clip-path="url(#clip630)" style="stroke:#000000; stroke-linecap:round; stroke-linejoin:round; stroke-width:4; stroke-opacity:0; fill:none" points="1688.19,1858.69 1688.19,1839.79 "/>
<polyline clip-path="url(#clip630)" style="stroke:#000000; stroke-linecap:round; stroke-linejoin:round; stroke-width:4; stroke-opacity:0; fill:none" points="2443.04,1858.69 2443.04,1839.79 "/>
<polyline clip-path="url(#clip630)" style="stroke:#000000; stroke-linecap:round; stroke-linejoin:round; stroke-width:4; stroke-opacity:0; fill:none" points="3197.9,1858.69 3197.9,1839.79 "/>
<path clip-path="url(#clip630)" d="M933.333 1892.19 L961.406 1892.19 L961.406 1900.73 L933.333 1900.73 L933.333 1892.19 Z" fill="#000000" fill-rule="nonzero" fill-opacity="1" /><path clip-path="url(#clip630)" d="M1009.9 1883.75 Q1017.45 1885.37 1021.67 1890.47 Q1025.94 1895.58 1025.94 1903.08 Q1025.94 1914.59 1018.02 1920.89 Q1010.1 1927.19 995.521 1927.19 Q990.625 1927.19 985.416 1926.2 Q980.26 1925.26 974.739 1923.34 L974.739 1913.18 Q979.114 1915.73 984.323 1917.03 Q989.531 1918.34 995.208 1918.34 Q1005.1 1918.34 1010.26 1914.43 Q1015.47 1910.52 1015.47 1903.08 Q1015.47 1896.2 1010.62 1892.35 Q1005.83 1888.44 997.239 1888.44 L988.177 1888.44 L988.177 1879.79 L997.656 1879.79 Q1005.42 1879.79 1009.53 1876.72 Q1013.65 1873.6 1013.65 1867.76 Q1013.65 1861.77 1009.37 1858.6 Q1005.16 1855.37 997.239 1855.37 Q992.916 1855.37 987.968 1856.31 Q983.021 1857.24 977.083 1859.22 L977.083 1849.85 Q983.073 1848.18 988.281 1847.35 Q993.541 1846.51 998.177 1846.51 Q1010.16 1846.51 1017.13 1851.98 Q1024.11 1857.4 1024.11 1866.67 Q1024.11 1873.13 1020.42 1877.61 Q1016.72 1882.03 1009.9 1883.75 Z" fill="#000000" fill-rule="nonzero" fill-opacity="1" /><path clip-path="url(#clip630)" d="M1045.88 1912.45 L1056.87 1912.45 L1056.87 1925.68 L1045.88 1925.68 L1045.88 1912.45 Z" fill="#000000" fill-rule="nonzero" fill-opacity="1" /><path clip-path="url(#clip630)" d="M1102.29 1854.85 Q1094.17 1854.85 1090.05 1862.87 Q1085.99 1870.84 1085.99 1886.88 Q1085.99 1902.87 1090.05 1910.89 Q1094.17 1918.86 1102.29 1918.86 Q1110.47 1918.86 1114.53 1910.89 Q1118.64 1902.87 1118.64 1886.88 Q1118.64 1870.84 1114.53 1862.87 Q1110.47 1854.85 1102.29 1854.85 M1102.29 1846.51 Q1115.36 1846.51 1122.24 1856.88 Q1129.17 1867.19 1129.17 1886.88 Q1129.17 1906.51 1122.24 1916.88 Q1115.36 1927.19 1102.29 1927.19 Q1089.22 1927.19 1082.29 1916.88 Q1075.42 1906.51 1075.42 1886.88 Q1075.42 1867.19 1082.29 1856.88 Q1089.22 1846.51 1102.29 1846.51 Z" fill="#000000" fill-rule="nonzero" fill-opacity="1" /><path clip-path="url(#clip630)" d="M1170.15 1854.85 Q1162.03 1854.85 1157.92 1862.87 Q1153.85 1870.84 1153.85 1886.88 Q1153.85 1902.87 1157.92 1910.89 Q1162.03 1918.86 1170.15 1918.86 Q1178.33 1918.86 1182.39 1910.89 Q1186.51 1902.87 1186.51 1886.88 Q1186.51 1870.84 1182.39 1862.87 Q1178.33 1854.85 1170.15 1854.85 M1170.15 1846.51 Q1183.23 1846.51 1190.1 1856.88 Q1197.03 1867.19 1197.03 1886.88 Q1197.03 1906.51 1190.1 1916.88 Q1183.23 1927.19 1170.15 1927.19 Q1157.08 1927.19 1150.16 1916.88 Q1143.28 1906.51 1143.28 1886.88 Q1143.28 1867.19 1150.16 1856.88 Q1157.08 1846.51 1170.15 1846.51 Z" fill="#000000" fill-rule="nonzero" fill-opacity="1" /><path clip-path="url(#clip630)" d="M1688.19 1892.19 L1716.26 1892.19 L1716.26 1900.73 L1688.19 1900.73 L1688.19 1892.19 Z" fill="#000000" fill-rule="nonzero" fill-opacity="1" /><path clip-path="url(#clip630)" d="M1734.7 1916.83 L1751.89 1916.83 L1751.89 1857.5 L1733.19 1861.25 L1733.19 1851.67 L1751.78 1847.92 L1762.3 1847.92 L1762.3 1916.83 L1779.49 1916.83 L1779.49 1925.68 L1734.7 1925.68 L1734.7 1916.83 Z" fill="#000000" fill-rule="nonzero" fill-opacity="1" /><path clip-path="url(#clip630)" d="M1800.74 1912.45 L1811.73 1912.45 L1811.73 1925.68 L1800.74 1925.68 L1800.74 1912.45 Z" fill="#000000" fill-rule="nonzero" fill-opacity="1" /><path clip-path="url(#clip630)" d="M1857.15 1854.85 Q1849.02 1854.85 1844.91 1862.87 Q1840.84 1870.84 1840.84 1886.88 Q1840.84 1902.87 1844.91 1910.89 Q1849.02 1918.86 1857.15 1918.86 Q1865.32 1918.86 1869.39 1910.89 Q1873.5 1902.87 1873.5 1886.88 Q1873.5 1870.84 1869.39 1862.87 Q1865.32 1854.85 1857.15 1854.85 M1857.15 1846.51 Q1870.22 1846.51 1877.09 1856.88 Q1884.02 1867.19 1884.02 1886.88 Q1884.02 1906.51 1877.09 1916.88 Q1870.22 1927.19 1857.15 1927.19 Q1844.07 1927.19 1837.15 1916.88 Q1830.27 1906.51 1830.27 1886.88 Q1830.27 1867.19 1837.15 1856.88 Q1844.07 1846.51 1857.15 1846.51 Z" fill="#000000" fill-rule="nonzero" fill-opacity="1" /><path clip-path="url(#clip630)" d="M1925.01 1854.85 Q1916.89 1854.85 1912.77 1862.87 Q1908.71 1870.84 1908.71 1886.88 Q1908.71 1902.87 1912.77 1910.89 Q1916.89 1918.86 1925.01 1918.86 Q1933.19 1918.86 1937.25 1910.89 Q1941.36 1902.87 1941.36 1886.88 Q1941.36 1870.84 1937.25 1862.87 Q1933.19 1854.85 1925.01 1854.85 M1925.01 1846.51 Q1938.08 1846.51 1944.96 1856.88 Q1951.89 1867.19 1951.89 1886.88 Q1951.89 1906.51 1944.96 1916.88 Q1938.08 1927.19 1925.01 1927.19 Q1911.94 1927.19 1905.01 1916.88 Q1898.14 1906.51 1898.14 1886.88 Q1898.14 1867.19 1905.01 1856.88 Q1911.94 1846.51 1925.01 1846.51 Z" fill="#000000" fill-rule="nonzero" fill-opacity="1" /><path clip-path="url(#clip630)" d="M2444.56 1916.83 L2461.74 1916.83 L2461.74 1857.5 L2443.04 1861.25 L2443.04 1851.67 L2461.64 1847.92 L2472.16 1847.92 L2472.16 1916.83 L2489.35 1916.83 L2489.35 1925.68 L2444.56 1925.68 L2444.56 1916.83 Z" fill="#000000" fill-rule="nonzero" fill-opacity="1" /><path clip-path="url(#clip630)" d="M2510.6 1912.45 L2521.59 1912.45 L2521.59 1925.68 L2510.6 1925.68 L2510.6 1912.45 Z" fill="#000000" fill-rule="nonzero" fill-opacity="1" /><path clip-path="url(#clip630)" d="M2567 1854.85 Q2558.88 1854.85 2554.76 1862.87 Q2550.7 1870.84 2550.7 1886.88 Q2550.7 1902.87 2554.76 1910.89 Q2558.88 1918.86 2567 1918.86 Q2575.18 1918.86 2579.24 1910.89 Q2583.36 1902.87 2583.36 1886.88 Q2583.36 1870.84 2579.24 1862.87 Q2575.18 1854.85 2567 1854.85 M2567 1846.51 Q2580.08 1846.51 2586.95 1856.88 Q2593.88 1867.19 2593.88 1886.88 Q2593.88 1906.51 2586.95 1916.88 Q2580.08 1927.19 2567 1927.19 Q2553.93 1927.19 2547 1916.88 Q2540.13 1906.51 2540.13 1886.88 Q2540.13 1867.19 2547 1856.88 Q2553.93 1846.51 2567 1846.51 Z" fill="#000000" fill-rule="nonzero" fill-opacity="1" /><path clip-path="url(#clip630)" d="M2634.87 1854.85 Q2626.74 1854.85 2622.63 1862.87 Q2618.56 1870.84 2618.56 1886.88 Q2618.56 1902.87 2622.63 1910.89 Q2626.74 1918.86 2634.87 1918.86 Q2643.04 1918.86 2647.11 1910.89 Q2651.22 1902.87 2651.22 1886.88 Q2651.22 1870.84 2647.11 1862.87 Q2643.04 1854.85 2634.87 1854.85 M2634.87 1846.51 Q2647.94 1846.51 2654.81 1856.88 Q2661.74 1867.19 2661.74 1886.88 Q2661.74 1906.51 2654.81 1916.88 Q2647.94 1927.19 2634.87 1927.19 Q2621.79 1927.19 2614.87 1916.88 Q2607.99 1906.51 2607.99 1886.88 Q2607.99 1867.19 2614.87 1856.88 Q2621.79 1846.51 2634.87 1846.51 Z" fill="#000000" fill-rule="nonzero" fill-opacity="1" /><path clip-path="url(#clip630)" d="M3233.06 1883.75 Q3240.61 1885.37 3244.83 1890.47 Q3249.1 1895.58 3249.1 1903.08 Q3249.1 1914.59 3241.18 1920.89 Q3233.26 1927.19 3218.68 1927.19 Q3213.79 1927.19 3208.58 1926.2 Q3203.42 1925.26 3197.9 1923.34 L3197.9 1913.18 Q3202.28 1915.73 3207.48 1917.03 Q3212.69 1918.34 3218.37 1918.34 Q3228.26 1918.34 3233.42 1914.43 Q3238.63 1910.52 3238.63 1903.08 Q3238.63 1896.2 3233.79 1892.35 Q3228.99 1888.44 3220.4 1888.44 L3211.34 1888.44 L3211.34 1879.79 L3220.82 1879.79 Q3228.58 1879.79 3232.69 1876.72 Q3236.81 1873.6 3236.81 1867.76 Q3236.81 1861.77 3232.54 1858.6 Q3228.32 1855.37 3220.4 1855.37 Q3216.08 1855.37 3211.13 1856.31 Q3206.18 1857.24 3200.24 1859.22 L3200.24 1849.85 Q3206.23 1848.18 3211.44 1847.35 Q3216.7 1846.51 3221.34 1846.51 Q3233.32 1846.51 3240.3 1851.98 Q3247.27 1857.4 3247.27 1866.67 Q3247.27 1873.13 3243.58 1877.61 Q3239.88 1882.03 3233.06 1883.75 Z" fill="#000000" fill-rule="nonzero" fill-opacity="1" /><path clip-path="url(#clip630)" d="M3269.05 1912.45 L3280.04 1912.45 L3280.04 1925.68 L3269.05 1925.68 L3269.05 1912.45 Z" fill="#000000" fill-rule="nonzero" fill-opacity="1" /><path clip-path="url(#clip630)" d="M3325.45 1854.85 Q3317.33 1854.85 3313.21 1862.87 Q3309.15 1870.84 3309.15 1886.88 Q3309.15 1902.87 3313.21 1910.89 Q3317.33 1918.86 3325.45 1918.86 Q3333.63 1918.86 3337.69 1910.89 Q3341.81 1902.87 3341.81 1886.88 Q3341.81 1870.84 3337.69 1862.87 Q3333.63 1854.85 3325.45 1854.85 M3325.45 1846.51 Q3338.52 1846.51 3345.4 1856.88 Q3352.33 1867.19 3352.33 1886.88 Q3352.33 1906.51 3345.4 1916.88 Q3338.52 1927.19 3325.45 1927.19 Q3312.38 1927.19 3305.45 1916.88 Q3298.58 1906.51 3298.58 1886.88 Q3298.58 1867.19 3305.45 1856.88 Q3312.38 1846.51 3325.45 1846.51 Z" fill="#000000" fill-rule="nonzero" fill-opacity="1" /><path clip-path="url(#clip630)" d="M3393.32 1854.85 Q3385.19 1854.85 3381.08 1862.87 Q3377.01 1870.84 3377.01 1886.88 Q3377.01 1902.87 3381.08 1910.89 Q3385.19 1918.86 3393.32 1918.86 Q3401.49 1918.86 3405.56 1910.89 Q3409.67 1902.87 3409.67 1886.88 Q3409.67 1870.84 3405.56 1862.87 Q3401.49 1854.85 3393.32 1854.85 M3393.32 1846.51 Q3406.39 1846.51 3413.26 1856.88 Q3420.19 1867.19 3420.19 1886.88 Q3420.19 1906.51 3413.26 1916.88 Q3406.39 1927.19 3393.32 1927.19 Q3380.24 1927.19 3373.32 1916.88 Q3366.44 1906.51 3366.44 1886.88 Q3366.44 1867.19 3373.32 1856.88 Q3380.24 1846.51 3393.32 1846.51 Z" fill="#000000" fill-rule="nonzero" fill-opacity="1" /><polyline clip-path="url(#clip632)" style="stroke:#000000; stroke-linecap:round; stroke-linejoin:round; stroke-width:2; stroke-opacity:0.1; fill:none" points="102.992,1724.05 3952.76,1724.05 "/>
<path clip-path="url(#clip630)" d="M127.217 76.7889 Q124.057 84.8907 121.059 87.3618 Q118.061 89.8329 113.038 89.8329 L107.084 89.8329 L107.084 83.5945 L111.459 83.5945 Q114.537 83.5945 116.239 82.1361 Q117.94 80.6778 120.006 75.2496 L121.343 71.8468 L102.992 27.2059 L110.891 27.2059 L125.07 62.6918 L139.248 27.2059 L147.147 27.2059 L127.217 76.7889 Z" fill="#000000" fill-rule="nonzero" fill-opacity="1" /><polyline clip-path="url(#clip632)" style="stroke:#009af9; stroke-linecap:round; stroke-linejoin:round; stroke-width:4; stroke-opacity:1; fill:none" points="555.906,1724.05 1310.76,1724.05 2065.62,1724.05 2820.47,1724.05 3575.33,1724.05 "/>
<polyline clip-path="url(#clip632)" style="stroke:#000000; stroke-linecap:round; stroke-linejoin:round; stroke-width:4; stroke-opacity:1; fill:none" points="-3746.77,1724.05 7802.52,1724.05 "/>
<polyline clip-path="url(#clip632)" style="stroke:#ff0000; stroke-linecap:round; stroke-linejoin:round; stroke-width:4; stroke-opacity:1; fill:none" stroke-dasharray="16, 10" points="933.333,3609.02 933.333,-1641.98 "/>
<polyline clip-path="url(#clip632)" style="stroke:#ff0000; stroke-linecap:round; stroke-linejoin:round; stroke-width:4; stroke-opacity:1; fill:none" stroke-dasharray="16, 10" points="1688.19,3609.02 1688.19,-1641.98 "/>
<polyline clip-path="url(#clip632)" style="stroke:#ff0000; stroke-linecap:round; stroke-linejoin:round; stroke-width:4; stroke-opacity:1; fill:none" stroke-dasharray="16, 10" points="2443.04,3609.02 2443.04,-1641.98 "/>
<polyline clip-path="url(#clip632)" style="stroke:#ff0000; stroke-linecap:round; stroke-linejoin:round; stroke-width:4; stroke-opacity:1; fill:none" stroke-dasharray="16, 10" points="3197.9,3609.02 3197.9,-1641.98 "/>
<circle clip-path="url(#clip632)" cx="933.333" cy="1724.05" r="28.8" fill="#000000" fill-rule="evenodd" fill-opacity="1" stroke="none"/>
<circle clip-path="url(#clip632)" cx="3197.9" cy="1724.05" r="28.8" fill="#000000" fill-rule="evenodd" fill-opacity="1" stroke="none"/>
<circle clip-path="url(#clip632)" cx="1688.19" cy="1724.05" r="28.8" fill="#ffffff" fill-rule="evenodd" fill-opacity="1" stroke="#000000" stroke-opacity="1" stroke-width="4"/>
<circle clip-path="url(#clip632)" cx="2443.04" cy="1724.05" r="28.8" fill="#ffffff" fill-rule="evenodd" fill-opacity="1" stroke="#000000" stroke-opacity="1" stroke-width="4"/>
<path clip-path="url(#clip630)" d="M563.197 330.977 L563.197 379.327 L611.548 379.327 L611.548 394.084 L563.197 394.084 L563.197 442.435 L548.614 442.435 L548.614 394.084 L500.263 394.084 L500.263 379.327 L548.614 379.327 L548.614 330.977 L563.197 330.977 Z" fill="#000000" fill-rule="nonzero" fill-opacity="1" /><path clip-path="url(#clip630)" d="M1287.37 386.619 L1334.16 386.619 L1334.16 400.855 L1287.37 400.855 L1287.37 386.619 Z" fill="#000000" fill-rule="nonzero" fill-opacity="1" /><path clip-path="url(#clip630)" d="M2072.91 330.977 L2072.91 379.327 L2121.26 379.327 L2121.26 394.084 L2072.91 394.084 L2072.91 442.435 L2058.33 442.435 L2058.33 394.084 L2009.97 394.084 L2009.97 379.327 L2058.33 379.327 L2058.33 330.977 L2072.91 330.977 Z" fill="#000000" fill-rule="nonzero" fill-opacity="1" /><path clip-path="url(#clip630)" d="M2797.08 386.619 L2843.87 386.619 L2843.87 400.855 L2797.08 400.855 L2797.08 386.619 Z" fill="#000000" fill-rule="nonzero" fill-opacity="1" /><path clip-path="url(#clip630)" d="M3582.62 330.977 L3582.62 379.327 L3630.97 379.327 L3630.97 394.084 L3582.62 394.084 L3582.62 442.435 L3568.04 442.435 L3568.04 394.084 L3519.69 394.084 L3519.69 379.327 L3568.04 379.327 L3568.04 330.977 L3582.62 330.977 Z" fill="#000000" fill-rule="nonzero" fill-opacity="1" /></svg>
