<?xml version="1.0" encoding="utf-8"?>
<svg xmlns="http://www.w3.org/2000/svg" xmlns:xlink="http://www.w3.org/1999/xlink" width="1000" height="500" viewBox="0 0 4000 2000">
<defs>
  <clipPath id="clip410">
    <rect x="0" y="0" width="4000" height="2000"/>
  </clipPath>
</defs>
<path clip-path="url(#clip410)" d="M0 2000 L4000 2000 L4000 0 L0 0  Z" fill="#ffffff" fill-rule="evenodd" fill-opacity="1"/>
<defs>
  <clipPath id="clip411">
    <rect x="800" y="0" width="2801" height="2000"/>
  </clipPath>
</defs>
<path clip-path="url(#clip410)" d="M102.992 518.875 L3952.76 518.875 L3952.76 108.352 L102.992 108.352  Z" fill="#ffffff" fill-rule="evenodd" fill-opacity="1"/>
<defs>
  <clipPath id="clip412">
    <rect x="102" y="108" width="3851" height="412"/>
  </clipPath>
</defs>
<polyline clip-path="url(#clip412)" style="stroke:#000000; stroke-linecap:round; stroke-linejoin:round; stroke-width:2; stroke-opacity:0.1; fill:none" points="227.178,518.875 227.178,108.352 "/>
<polyline clip-path="url(#clip412)" style="stroke:#000000; stroke-linecap:round; stroke-linejoin:round; stroke-width:2; stroke-opacity:0.1; fill:none" points="1469.04,518.875 1469.04,108.352 "/>
<polyline clip-path="url(#clip412)" style="stroke:#000000; stroke-linecap:round; stroke-linejoin:round; stroke-width:2; stroke-opacity:0.1; fill:none" points="2710.9,518.875 2710.9,108.352 "/>
<polyline clip-path="url(#clip412)" style="stroke:#000000; stroke-linecap:round; stroke-linejoin:round; stroke-width:2; stroke-opacity:0.1; fill:none" points="3952.76,518.875 3952.76,108.352 "/>
<polyline clip-path="url(#clip410)" style="stroke:#000000; stroke-linecap:round; stroke-linejoin:round; stroke-width:4; stroke-opacity:0; fill:none" points="227.178,518.875 227.178,499.977 "/>
<polyline clip-path="url(#clip410)" style="stroke:#000000; stroke-linecap:round; stroke-linejoin:round; stroke-width:4; stroke-opacity:0; fill:none" points="1469.04,518.875 1469.04,499.977 "/>
<polyline clip-path="url(#clip410)" style="stroke:#000000; stroke-linecap:round; stroke-linejoin:round; stroke-width:4; stroke-opacity:0; fill:none" points="2710.9,518.875 2710.9,499.977 "/>
<polyline clip-path="url(#clip410)" style="stroke:#000000; stroke-linecap:round; stroke-linejoin:round; stroke-width:4; stroke-opacity:0; fill:none" points="3952.76,518.875 3952.76,499.977 "/>
<path clip-path="url(#clip410)" d="M227.178 552.544 L258.37 552.544 L258.37 562.035 L227.178 562.035 L227.178 552.544 Z" fill="#000000" fill-rule="nonzero" fill-opacity="1" /><path clip-path="url(#clip410)" d="M312.247 543.169 Q320.638 544.963 325.326 550.634 Q330.071 556.306 330.071 564.639 Q330.071 577.428 321.275 584.43 Q312.479 591.433 296.275 591.433 Q290.835 591.433 285.048 590.333 Q279.319 589.292 273.185 587.15 L273.185 575.866 Q278.046 578.701 283.833 580.148 Q289.62 581.595 295.928 581.595 Q306.923 581.595 312.652 577.255 Q318.439 572.914 318.439 564.639 Q318.439 557 313.057 552.718 Q307.733 548.377 298.185 548.377 L288.115 548.377 L288.115 538.771 L298.648 538.771 Q307.27 538.771 311.842 535.357 Q316.414 531.884 316.414 525.403 Q316.414 518.748 311.668 515.218 Q306.981 511.63 298.185 511.63 Q293.381 511.63 287.884 512.672 Q282.386 513.713 275.789 515.912 L275.789 505.496 Q282.444 503.644 288.231 502.718 Q294.076 501.792 299.226 501.792 Q312.536 501.792 320.291 507.868 Q328.046 513.887 328.046 524.188 Q328.046 531.364 323.937 536.34 Q319.828 541.259 312.247 543.169 Z" fill="#000000" fill-rule="nonzero" fill-opacity="1" /><path clip-path="url(#clip410)" d="M352.235 575.056 L364.446 575.056 L364.446 589.755 L352.235 589.755 L352.235 575.056 Z" fill="#000000" fill-rule="nonzero" fill-opacity="1" /><path clip-path="url(#clip410)" d="M414.909 511.051 Q405.881 511.051 401.309 519.963 Q396.795 528.817 396.795 546.641 Q396.795 564.407 401.309 573.319 Q405.881 582.174 414.909 582.174 Q423.994 582.174 428.508 573.319 Q433.08 564.407 433.08 546.641 Q433.08 528.817 428.508 519.963 Q423.994 511.051 414.909 511.051 M414.909 501.792 Q429.434 501.792 437.073 513.308 Q444.769 524.766 444.769 546.641 Q444.769 568.458 437.073 579.975 Q429.434 591.433 414.909 591.433 Q400.383 591.433 392.686 579.975 Q385.048 568.458 385.048 546.641 Q385.048 524.766 392.686 513.308 Q400.383 501.792 414.909 501.792 Z" fill="#000000" fill-rule="nonzero" fill-opacity="1" /><path clip-path="url(#clip410)" d="M490.313 511.051 Q481.285 511.051 476.714 519.963 Q472.2 528.817 472.2 546.641 Q472.2 564.407 476.714 573.319 Q481.285 582.174 490.313 582.174 Q499.399 582.174 503.913 573.319 Q508.484 564.407 508.484 546.641 Q508.484 528.817 503.913 519.963 Q499.399 511.051 490.313 511.051 M490.313 501.792 Q504.839 501.792 512.477 513.308 Q520.174 524.766 520.174 546.641 Q520.174 568.458 512.477 579.975 Q504.839 591.433 490.313 591.433 Q475.788 591.433 468.091 579.975 Q460.452 568.458 460.452 546.641 Q460.452 524.766 468.091 513.308 Q475.788 501.792 490.313 501.792 Z" fill="#000000" fill-rule="nonzero" fill-opacity="1" /><path clip-path="url(#clip410)" d="M1469.04 552.544 L1500.23 552.544 L1500.23 562.035 L1469.04 562.035 L1469.04 552.544 Z" fill="#000000" fill-rule="nonzero" fill-opacity="1" /><path clip-path="url(#clip410)" d="M1520.72 579.917 L1539.81 579.917 L1539.81 514.003 L1519.04 518.169 L1519.04 507.521 L1539.7 503.355 L1551.39 503.355 L1551.39 579.917 L1570.48 579.917 L1570.48 589.755 L1520.72 589.755 L1520.72 579.917 Z" fill="#000000" fill-rule="nonzero" fill-opacity="1" /><path clip-path="url(#clip410)" d="M1594.09 575.056 L1606.31 575.056 L1606.31 589.755 L1594.09 589.755 L1594.09 575.056 Z" fill="#000000" fill-rule="nonzero" fill-opacity="1" /><path clip-path="url(#clip410)" d="M1656.77 511.051 Q1647.74 511.051 1643.17 519.963 Q1638.65 528.817 1638.65 546.641 Q1638.65 564.407 1643.17 573.319 Q1647.74 582.174 1656.77 582.174 Q1665.85 582.174 1670.37 573.319 Q1674.94 564.407 1674.94 546.641 Q1674.94 528.817 1670.37 519.963 Q1665.85 511.051 1656.77 511.051 M1656.77 501.792 Q1671.29 501.792 1678.93 513.308 Q1686.63 524.766 1686.63 546.641 Q1686.63 568.458 1678.93 579.975 Q1671.29 591.433 1656.77 591.433 Q1642.24 591.433 1634.55 579.975 Q1626.91 568.458 1626.91 546.641 Q1626.91 524.766 1634.55 513.308 Q1642.24 501.792 1656.77 501.792 Z" fill="#000000" fill-rule="nonzero" fill-opacity="1" /><path clip-path="url(#clip410)" d="M1732.17 511.051 Q1723.14 511.051 1718.57 519.963 Q1714.06 528.817 1714.06 546.641 Q1714.06 564.407 1718.57 573.319 Q1723.14 582.174 1732.17 582.174 Q1741.26 582.174 1745.77 573.319 Q1750.34 564.407 1750.34 546.641 Q1750.34 528.817 1745.77 519.963 Q1741.26 511.051 1732.17 511.051 M1732.17 501.792 Q1746.7 501.792 1754.34 513.308 Q1762.03 524.766 1762.03 546.641 Q1762.03 568.458 1754.34 579.975 Q1746.7 591.433 1732.17 591.433 Q1717.65 591.433 1709.95 579.975 Q1702.31 568.458 1702.31 546.641 Q1702.31 524.766 1709.95 513.308 Q1717.65 501.792 1732.17 501.792 Z" fill="#000000" fill-rule="nonzero" fill-opacity="1" /><path clip-path="url(#clip410)" d="M2712.57 579.917 L2731.67 579.917 L2731.67 514.003 L2710.9 518.169 L2710.9 507.521 L2731.56 503.355 L2743.25 503.355 L2743.25 579.917 L2762.34 579.917 L2762.34 589.755 L2712.57 589.755 L2712.57 579.917 Z" fill="#000000" fill-rule="nonzero" fill-opacity="1" /><path clip-path="url(#clip410)" d="M2785.95 575.056 L2798.16 575.056 L2798.16 589.755 L2785.95 589.755 L2785.95 575.056 Z" fill="#000000" fill-rule="nonzero" fill-opacity="1" /><path clip-path="url(#clip410)" d="M2848.63 511.051 Q2839.6 511.051 2835.03 519.963 Q2830.51 528.817 2830.51 546.641 Q2830.51 564.407 2835.03 573.319 Q2839.6 582.174 2848.63 582.174 Q2857.71 582.174 2862.23 573.319 Q2866.8 564.407 2866.8 546.641 Q2866.8 528.817 2862.23 519.963 Q2857.71 511.051 2848.63 511.051 M2848.63 501.792 Q2863.15 501.792 2870.79 513.308 Q2878.49 524.766 2878.49 546.641 Q2878.49 568.458 2870.79 579.975 Q2863.15 591.433 2848.63 591.433 Q2834.1 591.433 2826.41 579.975 Q2818.77 568.458 2818.77 546.641 Q2818.77 524.766 2826.41 513.308 Q2834.1 501.792 2848.63 501.792 Z" fill="#000000" fill-rule="nonzero" fill-opacity="1" /><path clip-path="url(#clip410)" d="M2924.03 511.051 Q2915 511.051 2910.43 519.963 Q2905.92 528.817 2905.92 546.641 Q2905.92 564.407 2910.43 573.319 Q2915 582.174 2924.03 582.174 Q2933.12 582.174 2937.63 573.319 Q2942.2 564.407 2942.2 546.641 Q2942.2 528.817 2937.63 519.963 Q2933.12 511.051 2924.03 511.051 M2924.03 501.792 Q2938.56 501.792 2946.2 513.308 Q2953.89 524.766 2953.89 546.641 Q2953.89 568.458 2946.2 579.975 Q2938.56 591.433 2924.03 591.433 Q2909.51 591.433 2901.81 579.975 Q2894.17 568.458 2894.17 546.641 Q2894.17 524.766 2901.81 513.308 Q2909.51 501.792 2924.03 501.792 Z" fill="#000000" fill-rule="nonzero" fill-opacity="1" /><path clip-path="url(#clip410)" d="M3991.82 543.169 Q4000.21 544.963 4004.9 550.634 Q4009.64 556.306 4009.64 564.639 Q4009.64 577.428 4000.85 584.43 Q3992.05 591.433 3975.85 591.433 Q3970.41 591.433 3964.62 590.333 Q3958.89 589.292 3952.76 587.15 L3952.76 575.866 Q3957.62 578.701 3963.4 580.148 Q3969.19 581.595 3975.5 581.595 Q3986.49 581.595 3992.22 577.255 Q3998.01 572.914 3998.01 564.639 Q3998.01 557 3992.63 552.718 Q3987.3 548.377 3977.76 548.377 L3967.69 548.377 L3967.69 538.771 L3978.22 538.771 Q3986.84 538.771 3991.41 535.357 Q3995.98 531.884 3995.98 525.403 Q3995.98 518.748 3991.24 515.218 Q3986.55 511.63 3977.76 511.63 Q3972.95 511.63 3967.45 512.672 Q3961.96 513.713 3955.36 515.912 L3955.36 505.496 Q3962.02 503.644 3967.8 502.718 Q3973.65 501.792 3978.8 501.792 Q3992.11 501.792 3999.86 507.868 Q4007.62 513.887 4007.62 524.188 Q4007.62 531.364 4003.51 536.34 Q3999.4 541.259 3991.82 543.169 Z" fill="#000000" fill-rule="nonzero" fill-opacity="1" /><path clip-path="url(#clip410)" d="M4031.81 575.056 L4044.02 575.056 L4044.02 589.755 L4031.81 589.755 L4031.81 575.056 Z" fill="#000000" fill-rule="nonzero" fill-opacity="1" /><path clip-path="url(#clip410)" d="M4094.48 511.051 Q4085.45 511.051 4080.88 519.963 Q4076.37 528.817 4076.37 546.641 Q4076.37 564.407 4080.88 573.319 Q4085.45 582.174 4094.48 582.174 Q4103.57 582.174 4108.08 573.319 Q4112.65 564.407 4112.65 546.641 Q4112.65 528.817 4108.08 519.963 Q4103.57 511.051 4094.48 511.051 M4094.48 501.792 Q4109.01 501.792 4116.64 513.308 Q4124.34 524.766 4124.34 546.641 Q4124.34 568.458 4116.64 579.975 Q4109.01 591.433 4094.48 591.433 Q4079.95 591.433 4072.26 579.975 Q4064.62 568.458 4064.62 546.641 Q4064.62 524.766 4072.26 513.308 Q4079.95 501.792 4094.48 501.792 Z" fill="#000000" fill-rule="nonzero" fill-opacity="1" /><path clip-path="url(#clip410)" d="M4169.88 511.051 Q4160.86 511.051 4156.28 519.963 Q4151.77 528.817 4151.77 546.641 Q4151.77 564.407 4156.28 573.319 Q4160.86 582.174 4169.88 582.174 Q4178.97 582.174 4183.48 573.319 Q4188.06 564.407 4188.06 546.641 Q4188.06 528.817 4183.48 519.963 Q4178.97 511.051 4169.88 511.051 M4169.88 501.792 Q4184.41 501.792 4192.05 513.308 Q4199.75 524.766 4199.75 546.641 Q4199.75 568.458 4192.05 579.975 Q4184.41 591.433 4169.88 591.433 Q4155.36 591.433 4147.66 579.975 Q4140.02 568.458 4140.02 546.641 Q4140.02 524.766 4147.66 513.308 Q4155.36 501.792 4169.88 501.792 Z" fill="#000000" fill-rule="nonzero" fill-opacity="1" /><polyline clip-path="url(#clip412)" style="stroke:#000000; stroke-linecap:round; stroke-linejoin:round; stroke-width:2; stroke-opacity:0.1; fill:none" points="102.992,487.296 3952.76,487.296 "/>
<path clip-path="url(#clip410)" d="M127.217 76.7889 Q124.057 84.8907 121.059 87.3618 Q118.061 89.8329 113.038 89.8329 L107.084 89.8329 L107.084 83.5945 L111.459 83.5945 Q114.537 83.5945 116.239 82.1361 Q117.94 80.6778 120.006 75.2496 L121.343 71.8468 L102.992 27.2059 L110.891 27.2059 L125.07 62.6918 L139.248 27.2059 L147.147 27.2059 L127.217 76.7889 Z" fill="#000000" fill-rule="nonzero" fill-opacity="1" /><polyline clip-path="url(#clip412)" style="stroke:#009af9; stroke-linecap:round; stroke-linejoin:round; stroke-width:4; stroke-opacity:1; fill:none" points="848.108,487.296 2089.97,487.296 3331.83,487.296 "/>
<polyline clip-path="url(#clip412)" style="stroke:#000000; stroke-linecap:round; stroke-linejoin:round; stroke-width:4; stroke-opacity:1; fill:none" points="-3746.77,487.296 7802.52,487.296 "/>
<polyline clip-path="url(#clip412)" style="stroke:#ff0000; stroke-linecap:round; stroke-linejoin:round; stroke-width:4; stroke-opacity:1; fill:none" stroke-dasharray="16, 10" points="227.178,929.397 227.178,-302.17 "/>
<polyline clip-path="url(#clip412)" style="stroke:#ff0000; stroke-linecap:round; stroke-linejoin:round; stroke-width:4; stroke-opacity:1; fill:none" stroke-dasharray="16, 10" points="1469.04,929.397 1469.04,-302.17 "/>
<polyline clip-path="url(#clip412)" style="stroke:#ff0000; stroke-linecap:round; stroke-linejoin:round; stroke-width:4; stroke-opacity:1; fill:none" stroke-dasharray="16, 10" points="2710.9,929.397 2710.9,-302.17 "/>
<polyline clip-path="url(#clip412)" style="stroke:#ff0000; stroke-linecap:round; stroke-linejoin:round; stroke-width:4; stroke-opacity:1; fill:none" stroke-dasharray="16, 10" points="3952.76,929.397 3952.76,-302.17 "/>
<circle clip-path="url(#clip412)" cx="227.178" cy="487.296" r="28.8" fill="#000000" fill-rule="evenodd" fill-opacity="1" stroke="none"/>
<circle clip-path="url(#clip412)" cx="1469.04" cy="487.296" r="28.8" fill="#000000" fill-rule="evenodd" fill-opacity="1" stroke="none"/>
<circle clip-path="url(#clip412)" cx="2710.9" cy="487.296" r="28.8" fill="#000000" fill-rule="evenodd" fill-opacity="1" stroke="none"/>
<circle clip-path="url(#clip412)" cx="3952.76" cy="487.296" r="28.8" fill="#000000" fill-rule="evenodd" fill-opacity="1" stroke="none"/>
<path clip-path="url(#clip410)" d="M824.714 180.494 L871.502 180.494 L871.502 194.73 L824.714 194.73 L824.714 180.494 Z" fill="#000000" fill-rule="nonzero" fill-opacity="1" /><path clip-path="url(#clip410)" d="M2097.26 124.852 L2097.26 173.202 L2145.61 173.202 L2145.61 187.959 L2097.26 187.959 L2097.26 236.309 L2082.68 236.309 L2082.68 187.959 L2034.32 187.959 L2034.32 173.202 L2082.68 173.202 L2082.68 124.852 L2097.26 124.852 Z" fill="#000000" fill-rule="nonzero" fill-opacity="1" /><path clip-path="url(#clip410)" d="M3308.43 180.494 L3355.22 180.494 L3355.22 194.73 L3308.43 194.73 L3308.43 180.494 Z" fill="#000000" fill-rule="nonzero" fill-opacity="1" /><path clip-path="url(#clip410)" d="M102.992 1185.54 L3952.76 1185.54 L3952.76 775.019 L102.992 775.019  Z" fill="#ffffff" fill-rule="evenodd" fill-opacity="1"/>
<defs>
  <clipPath id="clip413">
    <rect x="102" y="775" width="3851" height="412"/>
  </clipPath>
</defs>
<polyline clip-path="url(#clip413)" style="stroke:#000000; stroke-linecap:round; stroke-linejoin:round; stroke-width:2; stroke-opacity:0.1; fill:none" points="1177.66,1185.54 1177.66,775.019 "/>
<polyline clip-path="url(#clip413)" style="stroke:#000000; stroke-linecap:round; stroke-linejoin:round; stroke-width:2; stroke-opacity:0.1; fill:none" points="2067.68,1185.54 2067.68,775.019 "/>
<polyline clip-path="url(#clip413)" style="stroke:#000000; stroke-linecap:round; stroke-linejoin:round; stroke-width:2; stroke-opacity:0.1; fill:none" points="2957.69,1185.54 2957.69,775.019 "/>
<polyline clip-path="url(#clip410)" style="stroke:#000000; stroke-linecap:round; stroke-linejoin:round; stroke-width:4; stroke-opacity:0; fill:none" points="1177.66,1185.54 1177.66,1166.64 "/>
<polyline clip-path="url(#clip410)" style="stroke:#000000; stroke-linecap:round; stroke-linejoin:round; stroke-width:4; stroke-opacity:0; fill:none" points="2067.68,1185.54 2067.68,1166.64 "/>
<polyline clip-path="url(#clip410)" style="stroke:#000000; stroke-linecap:round; stroke-linejoin:round; stroke-width:4; stroke-opacity:0; fill:none" points="2957.69,1185.54 2957.69,1166.64 "/>
<path clip-path="url(#clip410)" d="M1177.66 1219.21 L1208.85 1219.21 L1208.85 1228.7 L1177.66 1228.7 L1177.66 1219.21 Z" fill="#000000" fill-rule="nonzero" fill-opacity="1" /><path clip-path="url(#clip410)" d="M1237.38 1246.58 L1278.18 1246.58 L1278.18 1256.42 L1223.32 1256.42 L1223.32 1246.58 Q1229.98 1239.7 1241.44 1228.12 Q1252.95 1216.49 1255.9 1213.13 Q1261.52 1206.83 1263.72 1202.49 Q1265.97 1198.09 1265.97 1193.86 Q1265.97 1186.98 1261.11 1182.64 Q1256.31 1178.3 1248.55 1178.3 Q1243.06 1178.3 1236.92 1180.21 Q1230.85 1182.12 1223.9 1185.99 L1223.9 1174.19 Q1230.96 1171.35 1237.1 1169.91 Q1243.23 1168.46 1248.32 1168.46 Q1261.75 1168.46 1269.73 1175.17 Q1277.72 1181.88 1277.72 1193.11 Q1277.72 1198.44 1275.69 1203.24 Q1273.73 1207.98 1268.46 1214.47 Q1267.01 1216.14 1259.26 1224.19 Q1251.51 1232.17 1237.38 1246.58 Z" fill="#000000" fill-rule="nonzero" fill-opacity="1" /><path clip-path="url(#clip410)" d="M1302.72 1241.72 L1314.93 1241.72 L1314.93 1256.42 L1302.72 1256.42 L1302.72 1241.72 Z" fill="#000000" fill-rule="nonzero" fill-opacity="1" /><path clip-path="url(#clip410)" d="M1350.46 1246.58 L1391.26 1246.58 L1391.26 1256.42 L1336.4 1256.42 L1336.4 1246.58 Q1343.06 1239.7 1354.51 1228.12 Q1366.03 1216.49 1368.98 1213.13 Q1374.59 1206.83 1376.79 1202.49 Q1379.05 1198.09 1379.05 1193.86 Q1379.05 1186.98 1374.19 1182.64 Q1369.39 1178.3 1361.63 1178.3 Q1356.13 1178.3 1350 1180.21 Q1343.92 1182.12 1336.98 1185.99 L1336.98 1174.19 Q1344.04 1171.35 1350.17 1169.91 Q1356.31 1168.46 1361.4 1168.46 Q1374.83 1168.46 1382.81 1175.17 Q1390.8 1181.88 1390.8 1193.11 Q1390.8 1198.44 1388.77 1203.24 Q1386.81 1207.98 1381.54 1214.47 Q1380.09 1216.14 1372.34 1224.19 Q1364.58 1232.17 1350.46 1246.58 Z" fill="#000000" fill-rule="nonzero" fill-opacity="1" /><path clip-path="url(#clip410)" d="M1447.92 1180.21 L1418.4 1226.33 L1447.92 1226.33 L1447.92 1180.21 M1444.85 1170.02 L1459.55 1170.02 L1459.55 1226.33 L1471.87 1226.33 L1471.87 1236.05 L1459.55 1236.05 L1459.55 1256.42 L1447.92 1256.42 L1447.92 1236.05 L1408.91 1236.05 L1408.91 1224.77 L1444.85 1170.02 Z" fill="#000000" fill-rule="nonzero" fill-opacity="1" /><path clip-path="url(#clip410)" d="M2097.54 1177.72 Q2088.51 1177.72 2083.94 1186.63 Q2079.42 1195.48 2079.42 1213.31 Q2079.42 1231.07 2083.94 1239.99 Q2088.51 1248.84 2097.54 1248.84 Q2106.62 1248.84 2111.14 1239.99 Q2115.71 1231.07 2115.71 1213.31 Q2115.71 1195.48 2111.14 1186.63 Q2106.62 1177.72 2097.54 1177.72 M2097.54 1168.46 Q2112.06 1168.46 2119.7 1179.97 Q2127.4 1191.43 2127.4 1213.31 Q2127.4 1235.13 2119.7 1246.64 Q2112.06 1258.1 2097.54 1258.1 Q2083.01 1258.1 2075.32 1246.64 Q2067.68 1235.13 2067.68 1213.31 Q2067.68 1191.43 2075.32 1179.97 Q2083.01 1168.46 2097.54 1168.46 Z" fill="#000000" fill-rule="nonzero" fill-opacity="1" /><path clip-path="url(#clip410)" d="M2147.94 1241.72 L2160.15 1241.72 L2160.15 1256.42 L2147.94 1256.42 L2147.94 1241.72 Z" fill="#000000" fill-rule="nonzero" fill-opacity="1" /><path clip-path="url(#clip410)" d="M2210.62 1177.72 Q2201.59 1177.72 2197.02 1186.63 Q2192.5 1195.48 2192.5 1213.31 Q2192.5 1231.07 2197.02 1239.99 Q2201.59 1248.84 2210.62 1248.84 Q2219.7 1248.84 2224.22 1239.99 Q2228.79 1231.07 2228.79 1213.31 Q2228.79 1195.48 2224.22 1186.63 Q2219.7 1177.72 2210.62 1177.72 M2210.62 1168.46 Q2225.14 1168.46 2232.78 1179.97 Q2240.48 1191.43 2240.48 1213.31 Q2240.48 1235.13 2232.78 1246.64 Q2225.14 1258.1 2210.62 1258.1 Q2196.09 1258.1 2188.39 1246.64 Q2180.75 1235.13 2180.75 1213.31 Q2180.75 1191.43 2188.39 1179.97 Q2196.09 1168.46 2210.62 1168.46 Z" fill="#000000" fill-rule="nonzero" fill-opacity="1" /><path clip-path="url(#clip410)" d="M2286.02 1177.72 Q2276.99 1177.72 2272.42 1186.63 Q2267.91 1195.48 2267.91 1213.31 Q2267.91 1231.07 2272.42 1239.99 Q2276.99 1248.84 2286.02 1248.84 Q2295.11 1248.84 2299.62 1239.99 Q2304.19 1231.07 2304.19 1213.31 Q2304.19 1195.48 2299.62 1186.63 Q2295.11 1177.72 2286.02 1177.72 M2286.02 1168.46 Q2300.55 1168.46 2308.18 1179.97 Q2315.88 1191.43 2315.88 1213.31 Q2315.88 1235.13 2308.18 1246.64 Q2300.55 1258.1 2286.02 1258.1 Q2271.49 1258.1 2263.8 1246.64 Q2256.16 1235.13 2256.16 1213.31 Q2256.16 1191.43 2263.8 1179.97 Q2271.49 1168.46 2286.02 1168.46 Z" fill="#000000" fill-rule="nonzero" fill-opacity="1" /><path clip-path="url(#clip410)" d="M2971.75 1246.58 L3012.55 1246.58 L3012.55 1256.42 L2957.69 1256.42 L2957.69 1246.58 Q2964.35 1239.7 2975.8 1228.12 Q2987.32 1216.49 2990.27 1213.13 Q2995.88 1206.83 2998.08 1202.49 Q3000.34 1198.09 3000.34 1193.86 Q3000.34 1186.98 2995.48 1182.64 Q2990.68 1178.3 2982.92 1178.3 Q2977.42 1178.3 2971.29 1180.21 Q2965.21 1182.12 2958.27 1185.99 L2958.27 1174.19 Q2965.33 1171.35 2971.46 1169.91 Q2977.6 1168.46 2982.69 1168.46 Q2996.12 1168.46 3004.1 1175.17 Q3012.09 1181.88 3012.09 1193.11 Q3012.09 1198.44 3010.06 1203.24 Q3008.1 1207.98 3002.83 1214.47 Q3001.38 1216.14 2993.63 1224.19 Q2985.87 1232.17 2971.75 1246.58 Z" fill="#000000" fill-rule="nonzero" fill-opacity="1" /><path clip-path="url(#clip410)" d="M3037.09 1241.72 L3049.3 1241.72 L3049.3 1256.42 L3037.09 1256.42 L3037.09 1241.72 Z" fill="#000000" fill-rule="nonzero" fill-opacity="1" /><path clip-path="url(#clip410)" d="M3084.83 1246.58 L3125.63 1246.58 L3125.63 1256.42 L3070.77 1256.42 L3070.77 1246.58 Q3077.42 1239.7 3088.88 1228.12 Q3100.4 1216.49 3103.35 1213.13 Q3108.96 1206.83 3111.16 1202.49 Q3113.42 1198.09 3113.42 1193.86 Q3113.42 1186.98 3108.56 1182.64 Q3103.75 1178.3 3096 1178.3 Q3090.5 1178.3 3084.37 1180.21 Q3078.29 1182.12 3071.35 1185.99 L3071.35 1174.19 Q3078.41 1171.35 3084.54 1169.91 Q3090.68 1168.46 3095.77 1168.46 Q3109.19 1168.46 3117.18 1175.17 Q3125.17 1181.88 3125.17 1193.11 Q3125.17 1198.44 3123.14 1203.24 Q3121.17 1207.98 3115.91 1214.47 Q3114.46 1216.14 3106.71 1224.19 Q3098.95 1232.17 3084.83 1246.58 Z" fill="#000000" fill-rule="nonzero" fill-opacity="1" /><path clip-path="url(#clip410)" d="M3182.28 1180.21 L3152.77 1226.33 L3182.28 1226.33 L3182.28 1180.21 M3179.22 1170.02 L3193.92 1170.02 L3193.92 1226.33 L3206.24 1226.33 L3206.24 1236.05 L3193.92 1236.05 L3193.92 1256.42 L3182.28 1256.42 L3182.28 1236.05 L3143.28 1236.05 L3143.28 1224.77 L3179.22 1170.02 Z" fill="#000000" fill-rule="nonzero" fill-opacity="1" /><polyline clip-path="url(#clip413)" style="stroke:#000000; stroke-linecap:round; stroke-linejoin:round; stroke-width:2; stroke-opacity:0.1; fill:none" points="102.992,1153.96 3952.76,1153.96 "/>
<path clip-path="url(#clip410)" d="M127.217 743.456 Q124.057 751.557 121.059 754.028 Q118.061 756.5 113.038 756.5 L107.084 756.5 L107.084 750.261 L111.459 750.261 Q114.537 750.261 116.239 748.803 Q117.94 747.344 120.006 741.916 L121.343 738.514 L102.992 693.873 L110.891 693.873 L125.07 729.358 L139.248 693.873 L147.147 693.873 L127.217 743.456 Z" fill="#000000" fill-rule="nonzero" fill-opacity="1" /><path clip-path="url(#clip410)" d="M151.238 693.873 L158.246 678.763 L166.47 678.763 L154.763 693.873 L151.238 693.873 Z" fill="#000000" fill-rule="nonzero" fill-opacity="1" /><polyline clip-path="url(#clip413)" style="stroke:#009af9; stroke-linecap:round; stroke-linejoin:round; stroke-width:4; stroke-opacity:1; fill:none" points="580.624,1153.96 1622.67,1153.96 2512.68,1153.96 3554.73,1153.96 "/>
<polyline clip-path="url(#clip413)" style="stroke:#000000; stroke-linecap:round; stroke-linejoin:round; stroke-width:4; stroke-opacity:1; fill:none" points="-3746.77,1153.96 7802.52,1153.96 "/>
<polyline clip-path="url(#clip413)" style="stroke:#ff0000; stroke-linecap:round; stroke-linejoin:round; stroke-width:4; stroke-opacity:1; fill:none" stroke-dasharray="16, 10" points="1177.66,1596.06 1177.66,364.496 "/>
<polyline clip-path="url(#clip413)" style="stroke:#ff0000; stroke-linecap:round; stroke-linejoin:round; stroke-width:4; stroke-opacity:1; fill:none" stroke-dasharray="16, 10" points="2067.68,1596.06 2067.68,364.496 "/>
<polyline clip-path="url(#clip413)" style="stroke:#ff0000; stroke-linecap:round; stroke-linejoin:round; stroke-width:4; stroke-opacity:1; fill:none" stroke-dasharray="16, 10" points="2957.69,1596.06 2957.69,364.496 "/>
<circle clip-path="url(#clip413)" cx="2067.68" cy="1153.96" r="28.8" fill="#000000" fill-rule="evenodd" fill-opacity="1" stroke="none"/>
<circle clip-path="url(#clip413)" cx="1177.66" cy="1153.96" r="28.8" fill="#000000" fill-rule="evenodd" fill-opacity="1" stroke="none"/>
<circle clip-path="url(#clip413)" cx="2957.69" cy="1153.96" r="28.8" fill="#000000" fill-rule="evenodd" fill-opacity="1" stroke="none"/>
<path clip-path="url(#clip410)" d="M557.23 847.16 L604.018 847.16 L604.018 861.396 L557.23 861.396 L557.23 847.16 Z" fill="#000000" fill-rule="nonzero" fill-opacity="1" /><path clip-path="url(#clip410)" d="M1629.96 791.518 L1629.96 839.869 L1678.31 839.869 L1678.31 854.626 L1629.96 854.626 L1629.96 902.976 L1615.38 902.976 L1615.38 854.626 L1567.03 854.626 L1567.03 839.869 L1615.38 839.869 L1615.38 791.518 L1629.96 791.518 Z" fill="#000000" fill-rule="nonzero" fill-opacity="1" /><path clip-path="url(#clip410)" d="M2489.29 847.16 L2536.08 847.16 L2536.08 861.396 L2489.29 861.396 L2489.29 847.16 Z" fill="#000000" fill-rule="nonzero" fill-opacity="1" /><path clip-path="url(#clip410)" d="M3562.02 791.518 L3562.02 839.869 L3610.37 839.869 L3610.37 854.626 L3562.02 854.626 L3562.02 902.976 L3547.44 902.976 L3547.44 854.626 L3499.09 854.626 L3499.09 839.869 L3547.44 839.869 L3547.44 791.518 L3562.02 791.518 Z" fill="#000000" fill-rule="nonzero" fill-opacity="1" /><path clip-path="url(#clip410)" d="M102.992 1852.21 L3952.76 1852.21 L3952.76 1441.69 L102.992 1441.69  Z" fill="#ffffff" fill-rule="evenodd" fill-opacity="1"/>
<defs>
  <clipPath id="clip414">
    <rect x="102" y="1441" width="3851" height="412"/>
  </clipPath>
</defs>
<polyline clip-path="url(#clip414)" style="stroke:#000000; stroke-linecap:round; stroke-linejoin:round; stroke-width:2; stroke-opacity:0.1; fill:none" points="1438.69,1852.21 1438.69,1441.69 "/>
<polyline clip-path="url(#clip414)" style="stroke:#000000; stroke-linecap:round; stroke-linejoin:round; stroke-width:2; stroke-opacity:0.1; fill:none" points="2716,1852.21 2716,1441.69 "/>
<polyline clip-path="url(#clip410)" style="stroke:#000000; stroke-linecap:round; stroke-linejoin:round; stroke-width:4; stroke-opacity:0; fill:none" points="1438.69,1852.21 1438.69,1833.31 "/>
<polyline clip-path="url(#clip410)" style="stroke:#000000; stroke-linecap:round; stroke-linejoin:round; stroke-width:4; stroke-opacity:0; fill:none" points="2716,1852.21 2716,1833.31 "/>
<path clip-path="url(#clip410)" d="M1438.69 1885.88 L1469.88 1885.88 L1469.88 1895.37 L1438.69 1895.37 L1438.69 1885.88 Z" fill="#000000" fill-rule="nonzero" fill-opacity="1" /><path clip-path="url(#clip410)" d="M1490.36 1913.25 L1509.46 1913.25 L1509.46 1847.34 L1488.69 1851.5 L1488.69 1840.85 L1509.35 1836.69 L1521.04 1836.69 L1521.04 1913.25 L1540.13 1913.25 L1540.13 1923.09 L1490.36 1923.09 L1490.36 1913.25 Z" fill="#000000" fill-rule="nonzero" fill-opacity="1" /><path clip-path="url(#clip410)" d="M1563.74 1908.39 L1575.95 1908.39 L1575.95 1923.09 L1563.74 1923.09 L1563.74 1908.39 Z" fill="#000000" fill-rule="nonzero" fill-opacity="1" /><path clip-path="url(#clip410)" d="M1611.49 1913.25 L1652.29 1913.25 L1652.29 1923.09 L1597.42 1923.09 L1597.42 1913.25 Q1604.08 1906.36 1615.54 1894.79 Q1627.05 1883.16 1630.01 1879.8 Q1635.62 1873.49 1637.82 1869.15 Q1640.07 1864.75 1640.07 1860.53 Q1640.07 1853.64 1635.21 1849.3 Q1630.41 1844.96 1622.66 1844.96 Q1617.16 1844.96 1611.02 1846.87 Q1604.95 1848.78 1598 1852.66 L1598 1840.85 Q1605.06 1838.02 1611.2 1836.57 Q1617.33 1835.13 1622.42 1835.13 Q1635.85 1835.13 1643.84 1841.84 Q1651.82 1848.55 1651.82 1859.78 Q1651.82 1865.1 1649.8 1869.91 Q1647.83 1874.65 1642.56 1881.13 Q1641.12 1882.81 1633.36 1890.85 Q1625.61 1898.84 1611.49 1913.25 Z" fill="#000000" fill-rule="nonzero" fill-opacity="1" /><path clip-path="url(#clip410)" d="M1677.17 1921.29 L1677.17 1910.65 Q1681.57 1912.73 1686.08 1913.83 Q1690.6 1914.93 1694.94 1914.93 Q1706.51 1914.93 1712.59 1907.17 Q1718.72 1899.36 1719.59 1883.5 Q1716.23 1888.48 1711.08 1891.14 Q1705.93 1893.81 1699.68 1893.81 Q1686.72 1893.81 1679.14 1885.99 Q1671.61 1878.12 1671.61 1864.52 Q1671.61 1851.21 1679.48 1843.17 Q1687.35 1835.13 1700.43 1835.13 Q1715.42 1835.13 1723.29 1846.64 Q1731.22 1858.1 1731.22 1879.97 Q1731.22 1900.4 1721.5 1912.61 Q1711.83 1924.77 1695.46 1924.77 Q1691.06 1924.77 1686.54 1923.9 Q1682.03 1923.03 1677.17 1921.29 M1700.43 1884.66 Q1708.3 1884.66 1712.88 1879.28 Q1717.5 1873.9 1717.5 1864.52 Q1717.5 1855.21 1712.88 1849.82 Q1708.3 1844.38 1700.43 1844.38 Q1692.56 1844.38 1687.93 1849.82 Q1683.36 1855.21 1683.36 1864.52 Q1683.36 1873.9 1687.93 1879.28 Q1692.56 1884.66 1700.43 1884.66 Z" fill="#000000" fill-rule="nonzero" fill-opacity="1" /><path clip-path="url(#clip410)" d="M2717.68 1913.25 L2736.78 1913.25 L2736.78 1847.34 L2716 1851.5 L2716 1840.85 L2736.66 1836.69 L2748.35 1836.69 L2748.35 1913.25 L2767.45 1913.25 L2767.45 1923.09 L2717.68 1923.09 L2717.68 1913.25 Z" fill="#000000" fill-rule="nonzero" fill-opacity="1" /><path clip-path="url(#clip410)" d="M2791.06 1908.39 L2803.27 1908.39 L2803.27 1923.09 L2791.06 1923.09 L2791.06 1908.39 Z" fill="#000000" fill-rule="nonzero" fill-opacity="1" /><path clip-path="url(#clip410)" d="M2838.8 1913.25 L2879.6 1913.25 L2879.6 1923.09 L2824.74 1923.09 L2824.74 1913.25 Q2831.39 1906.36 2842.85 1894.79 Q2854.37 1883.16 2857.32 1879.8 Q2862.93 1873.49 2865.13 1869.15 Q2867.39 1864.75 2867.39 1860.53 Q2867.39 1853.64 2862.53 1849.3 Q2857.73 1844.96 2849.97 1844.96 Q2844.47 1844.96 2838.34 1846.87 Q2832.26 1848.78 2825.32 1852.66 L2825.32 1840.85 Q2832.38 1838.02 2838.51 1836.57 Q2844.65 1835.13 2849.74 1835.13 Q2863.17 1835.13 2871.15 1841.84 Q2879.14 1848.55 2879.14 1859.78 Q2879.14 1865.1 2877.11 1869.91 Q2875.14 1874.65 2869.88 1881.13 Q2868.43 1882.81 2860.68 1890.85 Q2852.92 1898.84 2838.8 1913.25 Z" fill="#000000" fill-rule="nonzero" fill-opacity="1" /><path clip-path="url(#clip410)" d="M2904.48 1921.29 L2904.48 1910.65 Q2908.88 1912.73 2913.4 1913.83 Q2917.91 1914.93 2922.25 1914.93 Q2933.82 1914.93 2939.9 1907.17 Q2946.03 1899.36 2946.9 1883.5 Q2943.55 1888.48 2938.4 1891.14 Q2933.25 1893.81 2927 1893.81 Q2914.03 1893.81 2906.45 1885.99 Q2898.93 1878.12 2898.93 1864.52 Q2898.93 1851.21 2906.8 1843.17 Q2914.67 1835.13 2927.75 1835.13 Q2942.74 1835.13 2950.61 1846.64 Q2958.53 1858.1 2958.53 1879.97 Q2958.53 1900.4 2948.81 1912.61 Q2939.15 1924.77 2922.77 1924.77 Q2918.37 1924.77 2913.86 1923.9 Q2909.35 1923.03 2904.48 1921.29 M2927.75 1884.66 Q2935.62 1884.66 2940.19 1879.28 Q2944.82 1873.9 2944.82 1864.52 Q2944.82 1855.21 2940.19 1849.82 Q2935.62 1844.38 2927.75 1844.38 Q2919.88 1844.38 2915.25 1849.82 Q2910.68 1855.21 2910.68 1864.52 Q2910.68 1873.9 2915.25 1879.28 Q2919.88 1884.66 2927.75 1884.66 Z" fill="#000000" fill-rule="nonzero" fill-opacity="1" /><polyline clip-path="url(#clip414)" style="stroke:#000000; stroke-linecap:round; stroke-linejoin:round; stroke-width:2; stroke-opacity:0.1; fill:none" points="102.992,1820.63 3952.76,1820.63 "/>
<path clip-path="url(#clip410)" d="M127.217 1410.12 Q124.057 1418.22 121.059 1420.7 Q118.061 1423.17 113.038 1423.17 L107.084 1423.17 L107.084 1416.93 L111.459 1416.93 Q114.537 1416.93 116.239 1415.47 Q117.94 1414.01 120.006 1408.58 L121.343 1405.18 L102.992 1360.54 L110.891 1360.54 L125.07 1396.03 L139.248 1360.54 L147.147 1360.54 L127.217 1410.12 Z" fill="#000000" fill-rule="nonzero" fill-opacity="1" /><path clip-path="url(#clip410)" d="M151.238 1360.54 L158.246 1345.43 L166.47 1345.43 L154.763 1360.54 L151.238 1360.54 Z" fill="#000000" fill-rule="nonzero" fill-opacity="1" /><path clip-path="url(#clip410)" d="M170.075 1360.54 L177.083 1345.43 L185.306 1345.43 L173.599 1360.54 L170.075 1360.54 Z" fill="#000000" fill-rule="nonzero" fill-opacity="1" /><polyline clip-path="url(#clip414)" style="stroke:#009af9; stroke-linecap:round; stroke-linejoin:round; stroke-width:4; stroke-opacity:1; fill:none" points="696.634,1820.63 2077.34,1820.63 3458.05,1820.63 "/>
<polyline clip-path="url(#clip414)" style="stroke:#000000; stroke-linecap:round; stroke-linejoin:round; stroke-width:4; stroke-opacity:1; fill:none" points="-3746.77,1820.63 7802.52,1820.63 "/>
<polyline clip-path="url(#clip414)" style="stroke:#ff0000; stroke-linecap:round; stroke-linejoin:round; stroke-width:4; stroke-opacity:1; fill:none" stroke-dasharray="16, 10" points="1438.69,2262.73 1438.69,1031.16 "/>
<polyline clip-path="url(#clip414)" style="stroke:#ff0000; stroke-linecap:round; stroke-linejoin:round; stroke-width:4; stroke-opacity:1; fill:none" stroke-dasharray="16, 10" points="2716,2262.73 2716,1031.16 "/>
<circle clip-path="url(#clip414)" cx="1438.69" cy="1820.63" r="28.8" fill="#000000" fill-rule="evenodd" fill-opacity="1" stroke="none"/>
<circle clip-path="url(#clip414)" cx="2716" cy="1820.63" r="28.8" fill="#000000" fill-rule="evenodd" fill-opacity="1" stroke="none"/>
<path clip-path="url(#clip410)" d="M703.926 1458.19 L703.926 1506.54 L752.276 1506.54 L752.276 1521.29 L703.926 1521.29 L703.926 1569.64 L689.343 1569.64 L689.343 1521.29 L640.992 1521.29 L640.992 1506.54 L689.343 1506.54 L689.343 1458.19 L703.926 1458.19 Z" fill="#000000" fill-rule="nonzero" fill-opacity="1" /><path clip-path="url(#clip410)" d="M2053.95 1513.83 L2100.74 1513.83 L2100.74 1528.06 L2053.95 1528.06 L2053.95 1513.83 Z" fill="#000000" fill-rule="nonzero" fill-opacity="1" /><path clip-path="url(#clip410)" d="M3465.35 1458.19 L3465.35 1506.54 L3513.7 1506.54 L3513.7 1521.29 L3465.35 1521.29 L3465.35 1569.64 L3450.76 1569.64 L3450.76 1521.29 L3402.41 1521.29 L3402.41 1506.54 L3450.76 1506.54 L3450.76 1458.19 L3465.35 1458.19 Z" fill="#000000" fill-rule="nonzero" fill-opacity="1" /></svg>
